<?xml version="1.0" encoding="UTF-8"?>
<!DOCTYPE svg PUBLIC "-//W3C//DTD SVG 1.1//EN" "http://www.w3.org/Graphics/SVG/1.1/DTD/svg11.dtd">
<svg xmlns="http://www.w3.org/2000/svg" version="1.1" width="1818px" height="386px" style="shape-rendering:geometricPrecision; text-rendering:geometricPrecision; image-rendering:optimizeQuality; fill-rule:evenodd; clip-rule:evenodd" xmlns:xlink="http://www.w3.org/1999/xlink">
<g><path style="opacity:0.977" fill="#00eeed" d="M 110.5,-0.5 C 176.833,-0.5 243.167,-0.5 309.5,-0.5C 310.537,1.73752 310.703,4.07085 310,6.5C 293.954,27.4237 277.788,48.2571 261.5,69C 224.5,69.3333 187.5,69.6667 150.5,70C 143.041,82.4178 135.707,94.9178 128.5,107.5C 139.376,124.086 150.376,140.586 161.5,157C 213.833,157.333 266.167,157.667 318.5,158C 324.667,166.833 330.833,175.667 337,184.5C 338.252,187.014 338.752,189.68 338.5,192.5C 333.505,192.333 332.005,194.333 334,198.5C 352.999,227.161 371.499,256.161 389.5,285.5C 370.645,319.224 351.312,352.557 331.5,385.5C 259.5,385.5 187.5,385.5 115.5,385.5C 113.079,383.377 112.912,381.044 115,378.5C 130.044,357.578 145.211,336.745 160.5,316C 204.504,315.833 248.504,315.333 292.5,314.5C 299.833,301.833 307.167,289.167 314.5,276.5C 303.871,260.073 292.871,243.907 281.5,228C 229.167,227.667 176.833,227.333 124.5,227C 117.876,217.587 111.376,208.087 105,198.5C 103.508,192.839 105.675,190.506 111.5,191.5C 111.54,188.575 110.707,185.909 109,183.5C 90.9002,154.295 73.0669,124.962 55.5,95.5C 73.3233,63.1841 91.6567,31.1841 110.5,-0.5 Z"/></g>
<g><path style="opacity:0.975" fill="#00eeed" d="M 345.5,30.5 C 347.467,30.2606 349.301,30.5939 351,31.5C 381.333,84.1667 411.667,136.833 442,189.5C 442.667,191.5 442.667,193.5 442,195.5C 433.247,210.003 424.747,224.67 416.5,239.5C 413.658,242.283 411.158,241.95 409,238.5C 399.333,223.833 389.667,209.167 380,194.5C 374.312,193.005 368.479,192.005 362.5,191.5C 343.081,158.33 323.914,124.997 305,91.5C 304.333,89.8333 304.333,88.1667 305,86.5C 318.331,67.6753 331.831,49.0087 345.5,30.5 Z"/></g>
<g><path style="opacity:0.985" fill="#000000" d="M 910.5,49.5 C 927.5,49.5 944.5,49.5 961.5,49.5C 961.333,82.835 961.5,116.168 962,149.5C 969.563,126.467 985.063,118.3 1008.5,125C 1019,128.833 1026.17,136 1030,146.5C 1035.47,161.67 1038.47,177.337 1039,193.5C 1039.67,217.167 1039.67,240.833 1039,264.5C 1038.47,280.663 1035.47,296.33 1030,311.5C 1020.68,330.574 1005.52,338.074 984.5,334C 972.429,329.593 964.929,321.093 962,308.5C 961.5,315.826 961.334,323.159 961.5,330.5C 944.5,330.5 927.5,330.5 910.5,330.5C 910.5,236.833 910.5,143.167 910.5,49.5 Z M 972.5,160.5 C 975.652,159.959 978.152,160.959 980,163.5C 984.549,173.997 986.883,184.997 987,196.5C 988.71,224.199 988.044,251.865 985,279.5C 984.133,284.768 982.466,289.768 980,294.5C 976.667,298.5 973.333,298.5 970,294.5C 967.534,289.768 965.867,284.768 965,279.5C 960.333,245.833 960.333,212.167 965,178.5C 965.859,171.74 968.359,165.74 972.5,160.5 Z"/></g>
<g><path style="opacity:0.979" fill="#000000" d="M 1817.5,155.5 C 1817.5,180.5 1817.5,205.5 1817.5,230.5C 1816.17,249.987 1813,269.321 1808,288.5C 1799.26,319.242 1778.93,334.908 1747,335.5C 1719.61,335.312 1700.61,322.645 1690,297.5C 1684.89,283.929 1681.55,269.929 1680,255.5C 1674.42,205.959 1675.75,156.625 1684,107.5C 1692.71,64.7577 1718.54,46.2577 1761.5,52C 1778.59,54.7844 1791.42,63.6177 1800,78.5C 1807.3,93.3575 1811.97,109.024 1814,125.5C 1815.25,135.642 1816.41,145.642 1817.5,155.5 Z M 1745.5,89.5 C 1749.14,89.7377 1751.97,91.4044 1754,94.5C 1756.6,100.235 1758.27,106.235 1759,112.5C 1761.91,139.248 1763.08,166.081 1762.5,193C 1763.08,219.919 1761.91,246.752 1759,273.5C 1758.27,279.765 1756.6,285.765 1754,291.5C 1750.58,296.885 1746.58,297.551 1742,293.5C 1738.8,287.905 1736.8,281.905 1736,275.5C 1730.62,222.868 1730.29,170.201 1735,117.5C 1735.62,108.67 1737.96,100.337 1742,92.5C 1743.15,91.3636 1744.31,90.3636 1745.5,89.5 Z"/></g>
<g><path style="opacity:0.986" fill="#000000" d="M 475.5,55.5 C 493.5,55.5 511.5,55.5 529.5,55.5C 529.333,95.8347 529.5,136.168 530,176.5C 539.803,163.779 546.136,149.445 549,133.5C 554.58,107.8 557.08,81.7995 556.5,55.5C 575.167,55.5 593.833,55.5 612.5,55.5C 614.007,91.4727 605.507,124.806 587,155.5C 578.455,168.379 567.621,178.879 554.5,187C 564.5,189 574.5,191 584.5,193C 585,193.5 585.5,194 586,194.5C 597.117,239.801 608.617,284.968 620.5,330C 600.836,330.5 581.169,330.667 561.5,330.5C 551.004,285.847 540.504,241.181 530,196.5C 529.5,241.165 529.333,285.832 529.5,330.5C 511.5,330.5 493.5,330.5 475.5,330.5C 475.5,238.833 475.5,147.167 475.5,55.5 Z"/></g>
<g><path style="opacity:0.988" fill="#000000" d="M 1375.5,55.5 C 1398.84,55.3334 1422.17,55.5 1445.5,56C 1483.79,61.9548 1505.62,84.1214 1511,122.5C 1514.76,149.178 1510.1,174.178 1497,197.5C 1480.47,220.353 1457.97,232.019 1429.5,232.5C 1429.5,265.167 1429.5,297.833 1429.5,330.5C 1411.5,330.5 1393.5,330.5 1375.5,330.5C 1375.5,238.833 1375.5,147.167 1375.5,55.5 Z M 1429.5,90.5 C 1440.84,92.6612 1448.34,99.3278 1452,110.5C 1459.67,134.736 1459.01,158.736 1450,182.5C 1446.66,189.382 1441.82,194.882 1435.5,199C 1433.56,199.813 1431.56,200.313 1429.5,200.5C 1429.5,163.833 1429.5,127.167 1429.5,90.5 Z"/></g>
<g><path style="opacity:0.985" fill="#000000" d="M 1526.5,55.5 C 1549.5,55.3334 1572.5,55.5 1595.5,56C 1647.43,62.2602 1670.93,91.4269 1666,143.5C 1659.07,179.095 1637.91,200.928 1602.5,209C 1613.39,211.745 1624.39,213.912 1635.5,215.5C 1646.19,253.577 1657.19,291.577 1668.5,329.5C 1649.51,330.5 1630.51,330.833 1611.5,330.5C 1601.49,291.476 1591.33,252.476 1581,213.5C 1580.5,252.499 1580.33,291.499 1580.5,330.5C 1562.5,330.5 1544.5,330.5 1526.5,330.5C 1526.5,238.833 1526.5,147.167 1526.5,55.5 Z M 1580.5,90.5 C 1595.8,92.6276 1605.3,101.294 1609,116.5C 1613.77,134.64 1611.77,151.973 1603,168.5C 1597.75,176.581 1590.58,182.248 1581.5,185.5C 1580.5,153.84 1580.17,122.174 1580.5,90.5 Z"/></g>
<g><path style="opacity:0.977" fill="#000000" d="M 686.5,122.5 C 701.851,122.335 715.851,126.502 728.5,135C 739.198,144.396 745.365,156.229 747,170.5C 747.5,224.166 747.667,277.832 747.5,331.5C 730.5,331.5 713.5,331.5 696.5,331.5C 696.666,324.492 696.5,317.492 696,310.5C 685.931,332.764 669.098,339.931 645.5,332C 632.743,325.015 625.576,314.182 624,299.5C 619.805,272.385 628.971,251.218 651.5,236C 663.433,229.062 675.1,221.729 686.5,214C 692.063,208.788 695.396,202.455 696.5,195C 696.03,185.449 694.863,175.949 693,166.5C 688.864,158.94 684.197,158.607 679,165.5C 677.528,169.723 676.528,174.057 676,178.5C 675.287,189.522 675.453,200.522 676.5,211.5C 659.497,211.667 642.497,211.5 625.5,211C 623.159,190.92 625.659,171.42 633,152.5C 639.538,138.962 650.038,130.129 664.5,126C 671.894,124.302 679.228,123.135 686.5,122.5 Z M 695.5,236.5 C 696.826,252.023 696.66,267.69 695,283.5C 694.464,287.451 692.964,290.951 690.5,294C 682.926,296.962 678.092,294.462 676,286.5C 673.985,275.386 675.651,264.719 681,254.5C 685.691,248.317 690.524,242.317 695.5,236.5 Z"/></g>
<g><path style="opacity:0.977" fill="#000000" d="M 1112.5,122.5 C 1127.85,122.335 1141.85,126.502 1154.5,135C 1165.2,144.396 1171.36,156.229 1173,170.5C 1173.5,224.166 1173.67,277.832 1173.5,331.5C 1156.5,331.5 1139.5,331.5 1122.5,331.5C 1122.67,324.492 1122.5,317.492 1122,310.5C 1111.93,332.764 1095.1,339.931 1071.5,332C 1058.74,325.015 1051.58,314.182 1050,299.5C 1045.8,272.385 1054.97,251.218 1077.5,236C 1089.43,229.062 1101.1,221.729 1112.5,214C 1118.06,208.788 1121.4,202.455 1122.5,195C 1122.03,185.449 1120.86,175.949 1119,166.5C 1114.86,158.94 1110.2,158.607 1105,165.5C 1103.53,169.723 1102.53,174.057 1102,178.5C 1101.29,189.522 1101.45,200.522 1102.5,211.5C 1085.5,211.667 1068.5,211.5 1051.5,211C 1049.16,190.92 1051.66,171.42 1059,152.5C 1065.54,138.962 1076.04,130.129 1090.5,126C 1097.89,124.302 1105.23,123.135 1112.5,122.5 Z M 1121.5,236.5 C 1122.83,252.023 1122.66,267.69 1121,283.5C 1120.46,287.451 1118.96,290.951 1116.5,294C 1108.93,296.962 1104.09,294.462 1102,286.5C 1099.98,275.386 1101.65,264.719 1107,254.5C 1111.69,248.317 1116.52,242.317 1121.5,236.5 Z"/></g>
<g><path style="opacity:0.992" fill="#000000" d="M 842.5,123.5 C 868.605,119.142 884.105,129.809 889,155.5C 890.472,213.805 890.972,272.138 890.5,330.5C 873.5,330.5 856.5,330.5 839.5,330.5C 839.849,279.823 839.349,229.156 838,178.5C 837.597,173.554 836.264,168.887 834,164.5C 829.356,161.385 825.356,162.052 822,166.5C 820.263,170.661 819.263,174.995 819,179.5C 817.645,229.823 817.145,280.156 817.5,330.5C 800.5,330.5 783.5,330.5 766.5,330.5C 766.5,262.5 766.5,194.5 766.5,126.5C 783.5,126.5 800.5,126.5 817.5,126.5C 817.334,133.841 817.5,141.174 818,148.5C 821.718,135.617 829.885,127.283 842.5,123.5 Z"/></g>
<g><path style="opacity:0.992" fill="#000000" d="M 1268.5,123.5 C 1294.6,119.142 1310.1,129.809 1315,155.5C 1316.47,213.805 1316.97,272.138 1316.5,330.5C 1299.5,330.5 1282.5,330.5 1265.5,330.5C 1265.85,279.823 1265.35,229.156 1264,178.5C 1263.6,173.554 1262.26,168.887 1260,164.5C 1255.36,161.385 1251.36,162.052 1248,166.5C 1246.26,170.661 1245.26,174.995 1245,179.5C 1243.65,229.823 1243.15,280.156 1243.5,330.5C 1226.5,330.5 1209.5,330.5 1192.5,330.5C 1192.5,262.5 1192.5,194.5 1192.5,126.5C 1209.5,126.5 1226.5,126.5 1243.5,126.5C 1243.33,133.841 1243.5,141.174 1244,148.5C 1247.72,135.617 1255.88,127.283 1268.5,123.5 Z"/></g>
<g><path style="opacity:0.973" fill="#00eeed" d="M -0.5,194.5 C -0.5,193.167 -0.5,191.833 -0.5,190.5C 9.59976,173.813 19.5998,156.979 29.5,140C 30.8333,139.333 32.1667,139.333 33.5,140C 43.7923,156.75 53.959,173.584 64,190.5C 69.1157,191.144 74.2824,191.811 79.5,192.5C 97.1599,222.323 114.16,252.489 130.5,283C 130.142,285.032 129.308,286.866 128,288.5C 115.333,305.167 102.667,321.833 90,338.5C 88.4006,340.036 86.5672,340.536 84.5,340C 56.0139,291.519 27.6806,243.019 -0.5,194.5 Z"/></g>
</svg>
